<?xml version="1.0" standalone="no"?>
<!DOCTYPE svg PUBLIC "-//W3C//DTD SVG 20010904//EN"
 "http://www.w3.org/TR/2001/REC-SVG-20010904/DTD/svg10.dtd">
<svg version="1.0" xmlns="http://www.w3.org/2000/svg"
 width="200.000000pt" height="200.000000pt" viewBox="0 0 200.000000 200.000000"
 preserveAspectRatio="xMidYMid meet">

<g transform="translate(0.000000,200.000000) scale(0.100000,-0.100000)"
fill="#000000" stroke="none">
<path d="M1203 1561 c-255 -70 -465 -130 -468 -132 -2 -3 43 -52 100 -109
l105 -105 -315 -315 c-272 -273 -315 -320 -315 -346 0 -24 19 -48 108 -137 88
-88 113 -107 137 -107 26 0 72 42 345 315 l315 315 107 -107 c59 -59 109 -105
112 -102 2 2 32 110 66 239 33 129 90 342 126 472 35 131 64 240 64 243 0 10
-29 2 -487 -124z"/>
</g>
</svg>
