<?xml version="1.0" standalone="no"?>
<!DOCTYPE svg PUBLIC "-//W3C//DTD SVG 20010904//EN"
 "http://www.w3.org/TR/2001/REC-SVG-20010904/DTD/svg10.dtd">
<svg version="1.0" xmlns="http://www.w3.org/2000/svg"
 width="200.000000pt" height="200.000000pt" viewBox="0 0 200.000000 200.000000"
 preserveAspectRatio="xMidYMid meet">

<g transform="translate(0.000000,200.000000) scale(0.100000,-0.100000)"
fill="#000000" stroke="none">
<path d="M329 1878 c-20 -11 -46 -38 -58 -58 -21 -37 -21 -47 -21 -594 0 -538
1 -558 20 -596 33 -64 76 -80 215 -80 l115 0 0 -140 c0 -166 13 -206 80 -240
38 -19 58 -20 495 -20 437 0 457 1 495 20 26 13 47 34 60 60 19 38 20 58 20
595 0 537 -1 557 -20 595 -33 64 -76 80 -215 80 l-115 0 0 140 c0 166 -13 206
-80 240 -38 19 -58 20 -497 20 -448 0 -459 -1 -494 -22z m921 -253 l0 -125
-265 0 c-247 0 -269 -1 -305 -20 -26 -13 -47 -34 -60 -60 -19 -37 -20 -58 -20
-380 l0 -340 -100 0 -100 0 0 525 0 525 425 0 425 0 0 -125z m350 -800 l0
-525 -425 0 -425 0 0 525 0 525 425 0 425 0 0 -525z"/>
</g>
</svg>
